<svg height="581pt" viewBox="-18 -31 581.33275 581" width="581pt" xmlns="http://www.w3.org/2000/svg"><path d="m373.570312 518.710938h-24.96875c-23.183593 0-42.035156-18.855469-42.035156-42.035157v-17.570312h-68.125v17.570312c0 23.179688-18.859375 42.035157-42.042968 42.035157h-24.96875c-47.570313 0-86.273438-38.703126-86.273438-86.269532v-107.332031c0-4.703125 3.8125-8.515625 8.515625-8.515625s8.519531 3.8125 8.519531 8.515625v107.332031c0 38.175782 31.0625 69.238282 69.238282 69.238282h24.96875c13.789062 0 25.007812-11.214844 25.007812-25.003907v-26.089843c0-4.703126 3.8125-8.511719 8.515625-8.511719h85.15625c4.703125 0 8.515625 3.808593 8.515625 8.511719v26.089843c0 13.789063 11.21875 25.003907 25.007812 25.003907h24.96875c38.175782 0 69.246094-31.0625 69.246094-69.238282v-106.59375c0-4.703125 3.808594-8.515625 8.511719-8.515625 4.699219 0 8.515625 3.8125 8.515625 8.515625v106.59375c0 47.566406-38.703125 86.269532-86.273438 86.269532zm0 0"/><path d="m451.328125 259.890625c-4.703125 0-8.511719-3.8125-8.511719-8.515625v-64.769531c0-93.914063-76.410156-170.316407-170.316406-170.316407s-170.308594 76.402344-170.308594 170.316407v64.769531c0 4.703125-3.816406 8.515625-8.519531 8.515625s-8.515625-3.8125-8.515625-8.515625v-64.769531c0-103.300781 84.042969-187.347657 187.34375-187.347657s187.34375 84.046876 187.34375 187.347657v64.769531c0 4.703125-3.816406 8.515625-8.515625 8.515625zm0 0"/><path d="m340.625 459.105469h-136.25c-4.703125 0-8.519531-3.816407-8.519531-8.519531 0-4.703126 3.816406-8.511719 8.519531-8.511719h136.25c4.703125 0 8.515625 3.808593 8.515625 8.511719 0 4.703124-3.8125 8.519531-8.515625 8.519531zm0 0"/><path d="m187.34375 178.085938c0 9.410156-7.625 17.03125-17.027344 17.03125-9.410156 0-17.035156-7.621094-17.035156-17.03125 0-9.402344 7.625-17.027344 17.035156-17.027344 9.402344 0 17.027344 7.625 17.027344 17.027344zm0 0"/><path d="m391.71875 178.085938c0 9.410156-7.625 17.03125-17.027344 17.03125-9.410156 0-17.035156-7.621094-17.035156-17.03125 0-9.402344 7.625-17.027344 17.035156-17.027344 9.402344 0 17.027344 7.625 17.027344 17.027344zm0 0"/><path d="m476.875 331.367188h-42.578125c-4.703125 0-8.515625-3.8125-8.515625-8.511719 0-4.703125 3.8125-8.519531 8.515625-8.519531h42.578125c28.171875 0 51.09375-22.921876 51.09375-51.09375v-29.800782c0-11.738281-9.550781-21.289062-21.289062-21.289062-11.738282 0-21.289063 9.550781-21.289063 21.289062v21.289063c0 4.699219-3.8125 8.511719-8.515625 8.511719h-42.578125c-4.703125 0-8.515625-3.8125-8.515625-8.511719 0-4.703125 3.8125-8.519531 8.515625-8.519531h34.058594v-12.769532c0-21.132812 17.191406-38.324218 38.324219-38.324218 21.132812 0 38.320312 17.191406 38.320312 38.324218v29.800782c0 37.566406-30.5625 68.125-68.125 68.125zm0 0"/><path d="m110.703125 331.367188h-42.578125c-37.5625 0-68.125-30.558594-68.125-68.125v-29.800782c0-21.132812 17.191406-38.324218 38.320312-38.324218 21.132813 0 38.320313 17.191406 38.320313 38.324218v12.769532h34.0625c4.703125 0 8.515625 3.816406 8.515625 8.519531 0 4.699219-3.8125 8.511719-8.515625 8.511719h-42.578125c-4.703125 0-8.515625-3.8125-8.515625-8.511719v-21.289063c0-11.738281-9.550781-21.289062-21.289063-21.289062-11.738281 0-21.289062 9.550781-21.289062 21.289062v29.800782c0 28.171874 22.917969 51.09375 51.09375 51.09375h42.578125c4.703125 0 8.515625 3.816406 8.515625 8.519531 0 4.699219-3.8125 8.511719-8.515625 8.511719zm0 0"/><path d="m272.5 348.402344c-51.652344 0-93.671875-42.023438-93.671875-93.671875v-34.066407c0-4.703124 3.816406-8.511718 8.515625-8.511718h170.3125c4.699219 0 8.515625 3.808594 8.515625 8.511718v34.066407c0 51.648437-42.023437 93.671875-93.671875 93.671875zm-76.644531-119.21875v25.546875c0 42.257812 34.382812 76.636719 76.644531 76.636719s76.640625-34.378907 76.640625-76.636719v-25.546875zm0 0"/><path d="m221.410156 282.683594c0 17.484375 22.875 31.652344 51.09375 31.652344s51.09375-14.167969 51.09375-31.652344c0-4.386719-1.445312-8.5625-4.042968-12.363282l-18.167969-3.957031c-19.097657-4.160156-38.667969-4.160156-57.761719 0l-18.167969 3.957031c-2.605469 3.800782-4.046875 7.976563-4.046875 12.363282zm0 0"/></svg>